<?xml version="1.0" encoding="UTF-8"?>
<svg version="1.1" xmlns="http://www.w3.org/2000/svg" width="266" height="316">
<path d="M0 0 C16.44285681 4.87549824 30.92616905 21.51172579 39.02392578 36.15966797 C44.68696144 46.83699734 48.21274607 57.03254768 50 69 C50.19529297 70.16982422 50.19529297 70.16982422 50.39453125 71.36328125 C53.13460535 89.59390757 48.14526359 108.7541044 40 125 C39.51917969 125.9590625 39.03835937 126.918125 38.54296875 127.90625 C32.47142436 139.13343671 23.74420341 147.90265346 14 156 C14.59949463 155.75765625 15.19898926 155.5153125 15.81665039 155.265625 C18.56044906 154.16461193 21.31123908 153.08222356 24.0625 152 C25.00544922 151.6184375 25.94839844 151.236875 26.91992188 150.84375 C32.19370613 148.78568785 36.3315591 147.49683742 42 148 C43.01147234 151.84075659 42.92319275 154.31500803 41.8125 158.11328125 C41.52955078 159.10134766 41.24660156 160.08941406 40.95507812 161.10742188 C40.63990234 162.16509766 40.32472656 163.22277344 40 164.3125 C39.67966797 165.42044922 39.35933594 166.52839844 39.02929688 167.66992188 C38.0303079 171.11653158 37.01620876 174.55843307 36 178 C35.40538335 180.03490321 34.81159707 182.07004929 34.21875 184.10546875 C33.35642899 187.06419774 32.49335379 190.02268743 31.62695312 192.98022461 C27.04984033 208.61911807 22.70392439 224.3194956 18.5 240.0625 C15.95969394 249.57261942 13.28187713 259.03391443 10.49755859 268.4753418 C8.42366998 275.51179178 6.42848701 282.56625966 4.50927734 289.64648438 C3.10318773 294.79362454 3.10318773 294.79362454 2 297 C-8.23 297 -18.46 297 -29 297 C-30.03125 293.308125 -31.0625 289.61625 -32.125 285.8125 C-34.93328358 275.77303442 -37.77175453 265.74272775 -40.6484375 255.72265625 C-41.51830604 252.69165037 -42.37825449 249.65820302 -43.2265625 246.62109375 C-43.4119458 245.96069092 -43.5973291 245.30028809 -43.78833008 244.61987305 C-44.27386384 242.8878269 -44.75621067 241.15488823 -45.23828125 239.421875 C-45.77151213 237.07436117 -45.77151213 237.07436117 -47 236 C-47.17539307 236.60134766 -47.35078613 237.20269531 -47.53149414 237.82226562 C-48.06555495 239.65333125 -48.59965745 241.48438472 -49.13378906 243.31542969 C-49.75973929 245.46182683 -50.3853839 247.60831313 -51.01074219 249.75488281 C-52.63944595 255.34389123 -54.27272555 260.93146106 -55.91796875 266.515625 C-56.37901001 268.08473633 -56.37901001 268.08473633 -56.84936523 269.68554688 C-57.43158647 271.66658266 -58.01560991 273.64709006 -58.60180664 275.62695312 C-60.3563933 281.60686025 -61.92103388 287.60896905 -63.36035156 293.67285156 C-64 296 -64 296 -65 297 C-67.29151417 297.08790975 -69.58572524 297.10694038 -71.87890625 297.09765625 C-72.90889992 297.09553383 -72.90889992 297.09553383 -73.95970154 297.09336853 C-76.16067801 297.08775479 -78.36155409 297.07520007 -80.5625 297.0625 C-82.05143083 297.05748676 -83.54036324 297.05292355 -85.02929688 297.04882812 C-88.68623075 297.03778093 -92.34310558 297.02050713 -96 297 C-97.4371251 292.10584571 -98.70315324 287.19577402 -99.83984375 282.22265625 C-100.00746719 281.49364609 -100.17509064 280.76463593 -100.34779358 280.01353455 C-100.70085369 278.47498509 -101.05292439 276.93620828 -101.40405273 275.3972168 C-101.92910635 273.09923616 -102.45947406 270.80252766 -102.99023438 268.50585938 C-104.9772911 259.85008504 -106.77596541 251.18616108 -108.34619141 242.44482422 C-109.462007 236.56575102 -111.00461007 230.79702115 -112.52148438 225.01074219 C-115.81355414 212.3333858 -118.64506472 201.13608459 -112 189 C-105.46191652 178.61848783 -98.93039312 171.54386483 -87 168 C-84.30496304 167.48189112 -81.74363997 167.20323259 -79 167 C-79 166.34 -79 165.68 -79 165 C-79.82242188 164.78085938 -80.64484375 164.56171875 -81.4921875 164.3359375 C-101.89246711 156.56656598 -117.5713514 137.29034766 -126.375 118 C-135.9703713 94.37040142 -135.42704764 67.12035165 -125.6484375 43.67578125 C-118.81497942 28.14556057 -106.16298581 12.2434684 -91 4 C-90.34 4 -89.68 4 -89 4 C-89 3.34 -89 2.68 -89 2 C-87.68 2 -86.36 2 -85 2 C-85.23783203 3.43472656 -85.23783203 3.43472656 -85.48046875 4.8984375 C-87.70536604 20.63474482 -86.41347387 35.55764332 -77.953125 49.29296875 C-77 51 -77 51 -77 53 C-76.34 53 -75.68 53 -75 53 C-73.7109375 54.4609375 -73.7109375 54.4609375 -72.375 56.375 C-71.92898437 57.00148437 -71.48296875 57.62796875 -71.0234375 58.2734375 C-70 60 -70 60 -70 62 C-69.34 62 -68.68 62 -68 62 C-68 62.66 -68 63.32 -68 64 C-67.34 64 -66.68 64 -66 64 C-64.5546875 65.43359375 -64.5546875 65.43359375 -62.875 67.4375 C-59.50621429 71.41621323 -56.0296018 75.2770561 -52.50390625 79.1171875 C-51 81 -51 81 -51 83 C-50.34 83 -49.68 83 -49 83 C-49 83.66 -49 84.32 -49 85 C-48.34 85 -47.68 85 -47 85 C-45.11652764 87.2960425 -43.35916126 89.59499215 -41.625 92 C-41.14289063 92.64839844 -40.66078125 93.29679687 -40.1640625 93.96484375 C-30.4511234 107.29374115 -27.26209665 122.11266974 -29.6875 138.4375 C-32.33718588 151.28390811 -38.94355665 163.42244537 -49 172 C-49.66 172 -50.32 172 -51 172 C-51 172.66 -51 173.32 -51 174 C-51.66 174 -52.32 174 -53 174 C-53 174.66 -53 175.32 -53 176 C-53.66 176 -54.32 176 -55 176 C-55 176.66 -55 177.32 -55 178 C-56.75 179.5078125 -56.75 179.5078125 -59 181.125 C-59.7425 181.66382813 -60.485 182.20265625 -61.25 182.7578125 C-61.8275 183.16773438 -62.405 183.57765625 -63 184 C-52.86355874 181.32581324 -42.39478383 177.69739192 -33 173 C-33.33 172.01 -33.66 171.02 -34 170 C-32.35 169.34 -30.7 168.68 -29 168 C-29 167.34 -29 166.68 -29 166 C-27.35906743 164.56974774 -25.66008997 163.2057761 -23.9375 161.875 C-13.09703583 153.1775801 -4.81703775 142.88935189 -2 129 C-0.49421238 114.79170504 -2.98167492 103.15781023 -9.1875 90.3125 C-12.39653444 83.57758974 -14.07891213 77.42824319 -12.1875 70.0625 C-11 67 -11 67 -9 64 C-12.0223636 63.86412951 -15.03853888 63.76549458 -18.0625 63.6875 C-18.91005859 63.64560547 -19.75761719 63.60371094 -20.63085938 63.56054688 C-26.04235974 63.45607776 -29.4231198 64.13070838 -33.64379883 67.62084961 C-35.41283551 69.41982139 -36.42464038 71.07688746 -37.3125 73.4375 C-37.61285156 74.20835938 -37.91320312 74.97921875 -38.22265625 75.7734375 C-38.47917969 76.50820312 -38.73570312 77.24296875 -39 78 C-39.4125 79.175625 -39.825 80.35125 -40.25 81.5625 C-40.4975 82.366875 -40.745 83.17125 -41 84 C-44 83 -44 83 -44.94921875 81.25 C-47.45902188 73.60107619 -48.36483988 66.5170867 -45.07421875 58.953125 C-39.99429032 49.71689149 -30.62157386 43.67126503 -22 38 C-21.34 38 -20.68 38 -20 38 C-20 37.34 -20 36.68 -20 36 C-18.4609375 34.5546875 -18.4609375 34.5546875 -16.375 32.875 C-8.0290504 25.72343541 -2.48918928 17.10723361 -1.3125 6 C-1.26738281 5.278125 -1.22226563 4.55625 -1.17578125 3.8125 C-1 2 -1 2 0 0 Z M5.484375 162.9765625 C4.40663818 163.39687744 3.32890137 163.81719238 2.21850586 164.25024414 C1.07389893 164.70391357 -0.07070801 165.15758301 -1.25 165.625 C-3.6287466 166.55379441 -6.00765222 167.48218165 -8.38671875 168.41015625 C-9.53446777 168.8602002 -10.6822168 169.31024414 -11.86474609 169.77392578 C-22.32243159 173.86351436 -32.8753219 177.69065129 -43.4375 181.5 C-44.51410889 181.8906665 -45.59071777 182.28133301 -46.69995117 182.68383789 C-51.44361618 184.39782013 -56.18306138 186.08408741 -60.99609375 187.59375 C-70.28505938 190.54571338 -76.94117663 194.111743 -84 201 C-84.59039062 201.54269531 -85.18078125 202.08539063 -85.7890625 202.64453125 C-87.22207643 203.9456492 -87.22207643 203.9456492 -87 206 C-87.66 206 -88.32 206 -89 206 C-91.70512207 208.24687734 -93.01012294 210.64595054 -94 214 C-93.51971026 218.5568953 -92.10833269 222.81164142 -90.79150391 227.18164062 C-89.10546859 233.18521609 -87.81606729 239.29461944 -86.4375 245.375 C-84.54766321 253.6729879 -82.59464769 261.8906907 -80 270 C-77.78593185 266.67889778 -76.88416948 263.50845511 -75.86328125 259.7109375 C-75.66283707 258.98284882 -75.46239288 258.25476013 -75.25587463 257.50460815 C-74.60310363 255.1294056 -73.95782131 252.75223624 -73.3125 250.375 C-72.8659739 248.74561006 -72.41886816 247.11637886 -71.97119141 245.48730469 C-71.07231683 242.21507941 -70.17575188 238.94223501 -69.28076172 235.66894531 C-67.50622639 229.18827917 -65.6923671 222.71877592 -63.875 216.25 C-62.92625 212.8675 -61.9775 209.485 -61 206 C-51.1 206 -41.2 206 -31 206 C-25.69477544 224.11938233 -20.51857712 242.23631766 -15.67626953 260.484375 C-14.82058236 263.66740771 -13.92014518 266.8350562 -13 270 C-10.18279056 267.18279056 -9.79788529 263.91005631 -8.8984375 260.14453125 C-8.70099945 259.3436911 -8.5035614 258.54285095 -8.30014038 257.71774292 C-7.65208199 255.08417353 -7.01361528 252.44837361 -6.375 249.8125 C-5.47414757 246.13733262 -4.56882576 242.46326873 -3.6640625 238.7890625 C-3.43799316 237.86786118 -3.21192383 236.94665985 -2.97900391 235.99754333 C-0.98133983 227.87298627 1.12527213 219.77953759 3.25 211.6875 C6.61810977 198.78286166 9.59845701 185.81252346 12.40136719 172.77441406 C13.24911956 168.84543445 14.12373712 164.92270954 15 161 C11.04424005 161 9.09477423 161.55419281 5.484375 162.9765625 Z " fill="#F0D908" transform="translate(178,9)"/>
<path d="M0 0 C0.495 1.98 0.495 1.98 1 4 C0.01 4.33 -0.98 4.66 -2 5 C-2.33 7.97 -2.66 10.94 -3 14 C-2.34 14.33 -1.68 14.66 -1 15 C-1 16.32 -1 17.64 -1 19 C0.65 19.33 2.3 19.66 4 20 C4 19.34 4 18.68 4 18 C6.31 18 8.62 18 11 18 C11 17.34 11 16.68 11 16 C11.66 16 12.32 16 13 16 C13.37125 14.7934375 13.37125 14.7934375 13.75 13.5625 C15 11 15 11 17.125 10.1875 C17.74375 10.125625 18.3625 10.06375 19 10 C18.505 8.515 18.505 8.515 18 7 C20.49092811 5.75453595 21.41080733 6.2232422 24 7 C24 7.66 24 8.32 24 9 C24.99 9 25.98 9 27 9 C27 9.66 27 10.32 27 11 C26.01 11.33 25.02 11.66 24 12 C24.495 12.495 24.495 12.495 25 13 C25.07244053 15.01964199 25.08377188 17.04167124 25.0625 19.0625 C25.05347656 20.16722656 25.04445313 21.27195313 25.03515625 22.41015625 C25.02355469 23.26480469 25.01195312 24.11945313 25 25 C24.34 25.33 23.68 25.66 23 26 C22.01 27.485 22.01 27.485 21 29 C21.51958285 24.62065881 22.05675742 20.31196609 23 16 C16.8153757 17.13384779 11.50114888 18.96197122 5.7421875 21.453125 C1.04153161 23.44035153 -3.7627692 25.14464803 -8.5625 26.875 C-9.50955811 27.216521 -10.45661621 27.55804199 -11.43237305 27.90991211 C-13.35340785 28.60218716 -15.27455029 29.2941636 -17.19580078 29.98583984 C-20.6720862 31.24306513 -24.14072601 32.52024174 -27.60766602 33.80297852 C-29.95293536 34.67009872 -32.30058754 35.53052155 -34.6484375 36.390625 C-37.43627745 37.41442884 -40.21039572 38.46597206 -42.9765625 39.546875 C-49.64449169 42.08839833 -54.85182583 43.61622191 -62 43 C-58.81611796 39.20383296 -56.78584742 38.73984291 -52 38 C-50.08509438 37.38363043 -48.18606085 36.71609251 -46.3046875 36.00390625 C-45.25925781 35.61009766 -44.21382812 35.21628906 -43.13671875 34.81054688 C-42.06035156 34.39869141 -40.98398438 33.98683594 -39.875 33.5625 C-38.79089844 33.15451172 -37.70679688 32.74652344 -36.58984375 32.32617188 C-30.18559089 29.91308784 -30.18559089 29.91308784 -24 27 C-24.495 25.515 -24.495 25.515 -25 24 C-23.35 23.34 -21.7 22.68 -20 22 C-20 21.34 -20 20.68 -20 20 C-18.35906743 18.56974774 -16.66008997 17.2057761 -14.9375 15.875 C-9.05570572 11.17562828 -4.17652516 6.26478774 0 0 Z " fill="#F2DA0D" transform="translate(169,155)"/>
<path d="M0 0 C0.66 0.33 1.32 0.66 2 1 C1.67 1.33 1.34 1.66 1 2 C4.63 2.66 8.26 3.32 12 4 C5.75560343 10.24439657 -7.10530813 12.81531881 -15.375 15.75 C-16.19403809 16.04350342 -17.01307617 16.33700684 -17.85693359 16.6394043 C-25.10221878 19.17283853 -32.25085035 21.39739229 -40 21 C-36.81611796 17.20383296 -34.78584742 16.73984291 -30 16 C-28.08509438 15.38363043 -26.18606085 14.71609251 -24.3046875 14.00390625 C-23.25925781 13.61009766 -22.21382812 13.21628906 -21.13671875 12.81054688 C-20.06035156 12.39869141 -18.98398438 11.98683594 -17.875 11.5625 C-16.79089844 11.15451172 -15.70679688 10.74652344 -14.58984375 10.32617188 C-8.18559089 7.91308784 -8.18559089 7.91308784 -2 5 C-2.495 3.515 -2.495 3.515 -3 2 C-2.01 1.34 -1.02 0.68 0 0 Z " fill="#9F942F" transform="translate(147,177)"/>
<path d="M0 0 C0.33 1.32 0.66 2.64 1 4 C0.01 4.33 -0.98 4.66 -2 5 C-4.04108797 8.00791911 -4.19878036 10.42195344 -4 14 C-2.68 13.01 -1.36 12.02 0 11 C0 11.66 0 12.32 0 13 C1.98 13 3.96 13 6 13 C6.33 12.01 6.66 11.02 7 10 C8.32 10.66 9.64 11.32 11 12 C9.9275 12.639375 8.855 13.27875 7.75 13.9375 C3.28442998 17.11301646 1.76497158 20.94455378 0 26 C-0.4125 27.175625 -0.825 28.35125 -1.25 29.5625 C-1.4975 30.366875 -1.745 31.17125 -2 32 C-5 31 -5 31 -5.94921875 29.25 C-8.51984163 21.41572074 -9.22406034 14.54702004 -6 6.796875 C-4.42430147 3.96554171 -2.44277674 2.11267177 0 0 Z " fill="#F0DA10" transform="translate(139,61)"/>
<path d="M0 0 C1.25159912 0.00523682 2.50319824 0.01047363 3.79272461 0.01586914 C4.78942421 0.01799156 4.78942421 0.01799156 5.80625916 0.02015686 C7.93590735 0.02577021 10.06545175 0.03832485 12.19506836 0.05102539 C13.63582205 0.05603868 15.07657739 0.06060188 16.51733398 0.06469727 C20.05577938 0.07574394 23.59416375 0.09301747 27.13256836 0.11352539 C29.31871755 4.96325864 31.023042 9.72410378 32.38256836 14.86352539 C32.56819336 15.52223633 32.75381836 16.18094727 32.94506836 16.85961914 C33.82805072 20.15742446 34.23576046 21.80394909 33.13256836 25.11352539 C30.60764399 22.91970363 29.71837591 21.47102828 29.21850586 18.17211914 C29.09733398 17.42381836 28.97616211 16.67551758 28.85131836 15.90454102 C28.73788086 15.12788086 28.62444336 14.3512207 28.50756836 13.55102539 C27.85500617 8.17521334 27.85500617 8.17521334 26.13256836 3.11352539 C16.89256836 3.11352539 7.65256836 3.11352539 -1.86743164 3.11352539 C-2.13555664 5.34102539 -2.40368164 7.56852539 -2.67993164 9.86352539 C-3.25263284 14.62135071 -3.78445678 17.44946627 -6.86743164 21.11352539 C-7.54999153 23.44225914 -8.21793939 25.7753533 -8.86743164 28.11352539 C-9.52743164 28.77352539 -10.18743164 29.43352539 -10.86743164 30.11352539 C-10.16078764 23.80672764 -8.55997613 17.8460562 -6.86743164 11.73852539 C-6.59415039 10.72918945 -6.32086914 9.71985352 -6.03930664 8.67993164 C-3.69630207 0.14634146 -3.69630207 0.14634146 0 0 Z " fill="#C8BC28" transform="translate(119.867431640625,213.886474609375)"/>
<path d="M0 0 C1.32 0 2.64 0 4 0 C3.83886719 0.95261719 3.67773438 1.90523437 3.51171875 2.88671875 C2.85282141 7.52698869 2.80897156 12.13201932 2.8125 16.8125 C2.81185547 17.69454102 2.81121094 18.57658203 2.81054688 19.48535156 C2.85992063 25.5605674 3.42864083 31.10740312 5 37 C4.34 37 3.68 37 3 37 C-1.39266432 28.71299882 -1.25606838 20.20423555 -1 11 C-0.34 11 0.32 11 1 11 C1 8.69 1 6.38 1 4 C-2.16666667 5.83333333 -2.16666667 5.83333333 -4 9 C-5.65 8.67 -7.3 8.34 -9 8 C-3.85714286 2.42857143 -3.85714286 2.42857143 0 2 C0 1.34 0 0.68 0 0 Z " fill="#CBBC28" transform="translate(89,11)"/>
<path d="M0 0 C4.18380295 4.18380295 4.45696237 10.22405877 5.125 15.875 C5.21136719 16.56335938 5.29773438 17.25171875 5.38671875 17.9609375 C5.59659566 19.63995275 5.79907087 21.31989048 6 23 C6.66 23 7.32 23 8 23 C10.28584898 29.55276707 10.60594368 36.10401439 11 43 C11.33 43 11.66 43 12 43 C12 46.96 12 50.92 12 55 C11.67 55 11.34 55 11 55 C10.7733667 53.94200195 10.5467334 52.88400391 10.31323242 51.79394531 C9.45981049 47.81254711 8.60369491 43.83173189 7.74682617 39.85107422 C7.37859515 38.13866335 7.01106369 36.42610188 6.64428711 34.71337891 C6.11242299 32.23037889 5.57838625 29.74786111 5.04296875 27.265625 C4.86909637 26.45822876 4.695224 25.65083252 4.51608276 24.81896973 C3.3261349 19.34931353 2.00096615 13.93051163 0.5090332 8.53417969 C-0.07223352 5.64039142 -0.08511975 2.94401568 0 0 Z " fill="#9B8F1C" transform="translate(68,240)"/>
<path d="M0 0 C11.15245468 3.26095166 19.21429217 11.75829627 27 20 C26.34 20.66 25.68 21.32 25 22 C24.443125 21.401875 23.88625 20.80375 23.3125 20.1875 C21.08647805 17.89527309 21.08647805 17.89527309 18.25 16.5 C17.5075 16.005 16.765 15.51 16 15 C16 13.68 16 12.36 16 11 C15.113125 10.71125 14.22625 10.4225 13.3125 10.125 C10.49617576 9.16851252 7.74916844 8.13201054 5 7 C5.33 6.01 5.66 5.02 6 4 C4.68 4 3.36 4 2 4 C2 5.98 2 7.96 2 10 C1.34 10 0.68 10 0 10 C-0.33 11.32 -0.66 12.64 -1 14 C-2.01586535 10.95240395 -2.00433442 9.54906747 -1.625 6.4375 C-1.53476563 5.65246094 -1.44453125 4.86742187 -1.3515625 4.05859375 C-1 2 -1 2 0 0 Z " fill="#B5AA1C" transform="translate(178,9)"/>
<path d="M0 0 C1.32 0.33 2.64 0.66 4 1 C3.33558048 6.63246551 2.04619345 11.92356365 0.5 17.375 C0.27441406 18.19355469 0.04882812 19.01210938 -0.18359375 19.85546875 C-1.86896961 25.86896961 -1.86896961 25.86896961 -3 27 C-5.29151417 27.08790975 -7.58572524 27.10694038 -9.87890625 27.09765625 C-10.90889992 27.09553383 -10.90889992 27.09553383 -11.95970154 27.09336853 C-14.16067801 27.08775479 -16.36155409 27.07520007 -18.5625 27.0625 C-20.05143083 27.05748676 -21.54036324 27.05292355 -23.02929688 27.04882812 C-26.68623075 27.03778093 -30.34310558 27.02050713 -34 27 C-34 26.67 -34 26.34 -34 26 C-24.1 26 -14.2 26 -4 26 C-4 23.36 -4 20.72 -4 18 C-3.30859375 15.7578125 -3.30859375 15.7578125 -2.4375 14.125 C-1.963125 13.09375 -1.48875 12.0625 -1 11 C-1.495 10.01 -1.495 10.01 -2 9 C-2.25860135 4.94857881 -2.30441554 3.45662331 0 0 Z " fill="#BCAF25" transform="translate(116,279)"/>
<path d="M0 0 C5.78207133 5.78207133 5.94193734 21.42787093 6.25 29.4375 C6.20221616 37.04707717 4.45048501 44.55763048 3 52 C2.67 52 2.34 52 2 52 C2.01047363 50.93676514 2.02094727 49.87353027 2.03173828 48.77807617 C2.06829546 44.78413338 2.09102869 40.79020497 2.10986328 36.79614258 C2.1198403 35.07671613 2.13342675 33.35730628 2.15087891 31.63793945 C2.31138347 18.79686798 2.31138347 18.79686798 0.43310547 6.12231445 C0 4 0 4 0 0 Z " fill="#A59822" transform="translate(223,61)"/>
<path d="M0 0 C0.66 0 1.32 0 2 0 C2 0.66 2 1.32 2 2 C2.66 2 3.32 2 4 2 C6.29612756 11.41002278 6.29612756 11.41002278 6 16 C6.99 16.33 7.98 16.66 9 17 C8.67 17.99 8.34 18.98 8 20 C8.66 20.33 9.32 20.66 10 21 C13 24.46153846 13 24.46153846 13 28 C13.99 28.33 14.98 28.66 16 29 C18.1875 30.8125 18.1875 30.8125 20 33 C20 34.32 20 35.64 20 37 C20.66 37.33 21.32 37.66 22 38 C19 38 19 38 17.23828125 36.375 C9.72743246 27.11212766 0 12.39027767 0 0 Z " fill="#B1A21A" transform="translate(48,113)"/>
<path d="M0 0 C0.33 0 0.66 0 1 0 C1.125 7.625 1.125 7.625 0 11 C-0.15322359 13.58330229 -0.25706889 16.14492239 -0.31640625 18.73046875 C-0.33718735 19.48088943 -0.35796844 20.23131012 -0.37937927 21.00447083 C-0.44469926 23.39872184 -0.50367792 25.79308139 -0.5625 28.1875 C-0.60570193 29.81186013 -0.64931676 31.43620933 -0.69335938 33.06054688 C-0.80036263 37.04025371 -0.90167937 41.02006958 -1 45 C-1.66 45 -2.32 45 -3 45 C-5.42252289 29.78108603 -3.81274905 14.85636126 0 0 Z " fill="#A0961E" transform="translate(49,61)"/>
<path d="M0 0 C0.99 0 1.98 0 3 0 C2.69106068 1.6256807 2.3777305 3.25052748 2.0625 4.875 C1.88847656 5.77992188 1.71445313 6.68484375 1.53515625 7.6171875 C1 10 1 10 0 12 C-10.23 12 -20.46 12 -31 12 C-31 10.68 -31 9.36 -31 8 C-30.46012451 8.16226074 -29.92024902 8.32452148 -29.36401367 8.49169922 C-26.58023954 9.09025522 -24.023631 9.12966347 -21.17578125 9.1328125 C-19.50999023 9.13474609 -19.50999023 9.13474609 -17.81054688 9.13671875 C-16.65619141 9.13285156 -15.50183594 9.12898438 -14.3125 9.125 C-13.14654297 9.12886719 -11.98058594 9.13273437 -10.77929688 9.13671875 C-9.67263672 9.13542969 -8.56597656 9.13414062 -7.42578125 9.1328125 C-6.40911377 9.13168457 -5.39244629 9.13055664 -4.3449707 9.12939453 C-2.04143361 9.26379165 -2.04143361 9.26379165 -1 8 C-0.76924918 6.65252916 -0.58846937 5.29622435 -0.4375 3.9375 C-0.293125 2.638125 -0.14875 1.33875 0 0 Z " fill="#D1C11F" transform="translate(180,294)"/>
<path d="M0 0 C6.63650732 8.84867642 6.98344663 21.32116925 5.61328125 32.01953125 C4.40551694 39.39172459 4.40551694 39.39172459 2 43 C2.0721875 42.030625 2.144375 41.06125 2.21875 40.0625 C2.90337948 30.35809063 3.11640814 20.72654643 3 11 C2.34 11 1.68 11 1 11 C0.67 7.37 0.34 3.74 0 0 Z " fill="#BAAC26" transform="translate(143,113)"/>
<path d="M0 0 C0.33 0 0.66 0 1 0 C1.03738281 1.00160156 1.07476562 2.00320312 1.11328125 3.03515625 C1.43296146 9.96620654 1.91323501 15.70299942 5 22 C5.80545091 25.31020678 6.42579978 28.64261752 7 32 C6.34 32 5.68 32 5 32 C4.67 32.66 4.34 33.32 4 34 C-3.2168906 6.43378119 -3.2168906 6.43378119 0 0 Z " fill="#A2971B" transform="translate(63,206)"/>
<path d="M0 0 C0 0.66 0 1.32 0 2 C-0.99 2.33 -1.98 2.66 -3 3 C-2.67 3.33 -2.34 3.66 -2 4 C-1.92755947 6.01964199 -1.91622812 8.04167124 -1.9375 10.0625 C-1.94652344 11.16722656 -1.95554688 12.27195313 -1.96484375 13.41015625 C-1.97644531 14.26480469 -1.98804688 15.11945313 -2 16 C-2.66 16.33 -3.32 16.66 -4 17 C-4.66 17.99 -5.32 18.98 -6 20 C-5.48041715 15.62065881 -4.94324258 11.31196609 -4 7 C-6.31 7.33 -8.62 7.66 -11 8 C-11.33 6.68 -11.66 5.36 -12 4 C-4.34782609 0 -4.34782609 0 0 0 Z " fill="#AD9D19" transform="translate(196,164)"/>
<path d="M0 0 C3.05001831 3.66002197 7 9.07851471 7 14 C7.66 14 8.32 14 9 14 C10.32 16.31 11.64 18.62 13 21 C12.34 21 11.68 21 11 21 C11 20.34 11 19.68 11 19 C9.02 19.33 7.04 19.66 5 20 C2.66058664 13.48306278 1.31317843 6.78475524 0 0 Z " fill="#D3C217" transform="translate(94,48)"/>
<path d="M0 0 C0.66 0 1.32 0 2 0 C2.66 1.65 3.32 3.3 4 5 C3.34 5 2.68 5 2 5 C2 5.66 2 6.32 2 7 C1.34 7 0.68 7 0 7 C0 7.66 0 8.32 0 9 C-1.64453125 10.47265625 -1.64453125 10.47265625 -3.8125 12.0625 C-4.52019531 12.58972656 -5.22789063 13.11695313 -5.95703125 13.66015625 C-8 15 -8 15 -11 16 C-10.69121904 12.39755548 -10.00552268 11.00654002 -7.625 8.1875 C-5 6 -5 6 -2 6 C-2 5.34 -2 4.68 -2 4 C-1.01 4 -0.02 4 1 4 C0.67 2.68 0.34 1.36 0 0 Z " fill="#C8B31A" transform="translate(123,178)"/>
<path d="M0 0 C0.33 1.32 0.66 2.64 1 4 C2.77049689 4.05410687 4.54146849 4.09284119 6.3125 4.125 C7.79169922 4.15980469 7.79169922 4.15980469 9.30078125 4.1953125 C12.22406527 4.20682639 12.22406527 4.20682639 15 2 C17.33199388 1.92094936 19.66832622 1.91201231 22 2 C18.0696149 5.9303851 12.85921993 7.1942974 7.4375 7.25 C3.56938676 7.11569051 -0.18659807 6.64908969 -4 6 C-2.25 1.125 -2.25 1.125 0 0 Z " fill="#E0CA1C" transform="translate(151,174)"/>
<path d="M0 0 C0.33 0 0.66 0 1 0 C0.91283383 2.58492789 0.80594881 5.16647502 0.6875 7.75 C0.66494141 8.47960937 0.64238281 9.20921875 0.61914062 9.9609375 C0.40177415 14.30826704 -0.10761094 16.7516246 -3 20 C-3.68255989 22.32873375 -4.35050775 24.66182791 -5 27 C-5.66 27.66 -6.32 28.32 -7 29 C-6.29791463 22.66345734 -4.65627796 16.69187754 -2.9375 10.5625 C-2.65583984 9.54478516 -2.37417969 8.52707031 -2.08398438 7.47851562 C-1.39317556 4.98457872 -0.69842182 2.49181351 0 0 Z " fill="#BEAF21" transform="translate(116,215)"/>
<path d="M0 0 C4.8783096 7.3174644 4.33526562 15.10155146 4.3125 23.625 C4.32861328 24.83929688 4.34472656 26.05359375 4.36132812 27.3046875 C4.36197266 28.47515625 4.36261719 29.645625 4.36328125 30.8515625 C4.36775269 32.44218506 4.36775269 32.44218506 4.37231445 34.06494141 C3.95222232 37.37664476 2.89536346 39.28553632 1 42 C-0.36598787 39.26802427 0.64153835 37.8575842 1.49755859 35.06884766 C2.41075646 31.30867335 2.33670322 27.53888602 2.3125 23.6875 C2.31193604 22.84952881 2.31137207 22.01155762 2.31079102 21.14819336 C2.23008529 15.71348035 1.63276162 10.98956291 -0.44140625 5.91015625 C-1.11890531 3.59339374 -0.76236647 2.25680671 0 0 Z " fill="#817613" transform="translate(174,105)"/>
<path d="M0 0 C1.30477141 3.64579605 0.67424442 5.98670262 -0.43359375 9.640625 C-0.75263672 10.71054688 -1.07167969 11.78046875 -1.40039062 12.8828125 C-1.74263672 13.99398437 -2.08488281 15.10515625 -2.4375 16.25 C-2.77587891 17.37664062 -3.11425781 18.50328125 -3.46289062 19.6640625 C-4.29968989 22.4455361 -5.14568326 25.22386656 -6 28 C-6.33 28 -6.66 28 -7 28 C-7.19388861 22.47417455 -6.76743391 18.30230173 -5 13 C-4.67386719 11.98679688 -4.34773437 10.97359375 -4.01171875 9.9296875 C-1.16155867 1.16155867 -1.16155867 1.16155867 0 0 Z " fill="#C9BB26" transform="translate(200,229)"/>
<path d="M0 0 C0.33 0.99 0.66 1.98 1 3 C2.33076989 3.34342449 3.66431979 3.67619874 5 4 C5.99 5.485 5.99 5.485 7 7 C3.03230578 8.98384711 -1.85529486 8.32630565 -6 7 C-6 5.68 -6 4.36 -6 3 C-4.02 2.67 -2.04 2.34 0 2 C0 1.34 0 0.68 0 0 Z " fill="#F0DA09" transform="translate(158,171)"/>
<path d="M0 0 C1.32 0.66 2.64 1.32 4 2 C2.9275 2.639375 1.855 3.27875 0.75 3.9375 C-3.71557002 7.11301646 -5.23502842 10.94455378 -7 16 C-7.4125 17.175625 -7.825 18.35125 -8.25 19.5625 C-8.4975 20.366875 -8.745 21.17125 -9 22 C-9.99 21.67 -10.98 21.34 -12 21 C-12 20.01 -12 19.02 -12 18 C-11.34 18 -10.68 18 -10 18 C-8.47533261 14.85537351 -8.0013129 12.92385186 -8.0625 9.375 C-8 6 -8 6 -6.75 4.0625 C-5 3 -5 3 -1 3 C-0.67 2.01 -0.34 1.02 0 0 Z " fill="#BEAF17" transform="translate(146,71)"/>
<path d="M0 0 C0.53625 0.37125 1.0725 0.7425 1.625 1.125 C-1.94409386 4.69409386 -7.00042624 5.9497679 -11.96875 6.31640625 C-14.10511692 6.31302592 -16.24104848 6.22661674 -18.375 6.125 C-15.23202549 2.37760732 -13.16092195 1.69931063 -8.375 1.125 C-6.828125 0.5371875 -6.828125 0.5371875 -5.25 -0.0625 C-2.375 -0.875 -2.375 -0.875 0 0 Z " fill="#A59434" transform="translate(125.375,191.875)"/>
<path d="M0 0 C1.67542976 0.28604898 3.34385343 0.61781233 5 1 C5 1.66 5 2.32 5 3 C1.04 4.98 1.04 4.98 -3 7 C-3 8.32 -3 9.64 -3 11 C-4.24460783 11.67667998 -5.49596896 12.34094719 -6.75 13 C-7.79414063 13.556875 -7.79414063 13.556875 -8.859375 14.125 C-11 15 -11 15 -15 15 C-15 14.01 -15 13.02 -15 12 C-12.69 12 -10.38 12 -8 12 C-8 11.34 -8 10.68 -8 10 C-7.34 10 -6.68 10 -6 10 C-5.62875 8.7934375 -5.62875 8.7934375 -5.25 7.5625 C-4 5 -4 5 -1.875 4.1875 C-1.25625 4.125625 -0.6375 4.06375 0 4 C-0.33 3.01 -0.66 2.02 -1 1 C-0.67 0.67 -0.34 0.34 0 0 Z " fill="#D2C01E" transform="translate(188,161)"/>
<path d="M0 0 C0.33 0 0.66 0 1 0 C1 3.63 1 7.26 1 11 C0.34 11 -0.32 11 -1 11 C-0.6596875 12.6396875 -0.6596875 12.6396875 -0.3125 14.3125 C0 18 0 18 -1.4375 19.9375 C-1.953125 20.288125 -2.46875 20.63875 -3 21 C-3.99 20.67 -4.98 20.34 -6 20 C-6 18.35 -6 16.7 -6 15 C-5.34 14.67 -4.68 14.34 -4 14 C-3.20180463 11.64328449 -2.50852775 9.33786625 -1.875 6.9375 C-1.69324219 6.27427734 -1.51148437 5.61105469 -1.32421875 4.92773438 C-0.87569596 3.28708521 -0.43692614 1.64377551 0 0 Z " fill="#BEA618" transform="translate(103,262)"/>
<path d="M0 0 C0.66 0 1.32 0 2 0 C4.28584898 6.55276707 4.60594368 13.10401439 5 20 C5.33 20 5.66 20 6 20 C6 23.96 6 27.92 6 32 C5.67 32 5.34 32 5 32 C2.53518383 22.34613668 1.59153604 13.95441792 2 4 C1.34 4 0.68 4 0 4 C0 2.68 0 1.36 0 0 Z " fill="#E6D520" transform="translate(74,263)"/>
<path d="M0 0 C0.66 0.33 1.32 0.66 2 1 C2 2.65 2 4.3 2 6 C0.35 6 -1.3 6 -3 6 C-3.33 7.65 -3.66 9.3 -4 11 C-4.99 11.33 -5.98 11.66 -7 12 C-7 11.34 -7 10.68 -7 10 C-9.31 10.66 -11.62 11.32 -14 12 C-10.29939798 8.07511907 -6.5093075 4.97784457 -2 2 C-1.34 2 -0.68 2 0 2 C0 1.34 0 0.68 0 0 Z " fill="#AFA416" transform="translate(158,45)"/>
<path d="M0 0 C1.28090028 3.84270085 0.4844352 5.55292032 -0.65234375 9.41796875 C-1.01650391 10.67158203 -1.38066406 11.92519531 -1.75585938 13.21679688 C-2.1495548 14.54041956 -2.54343742 15.86398658 -2.9375 17.1875 C-3.32826011 18.52255661 -3.71824355 19.85784081 -4.10742188 21.19335938 C-5.06398322 24.464563 -6.0284695 27.73321685 -7 31 C-7.33 31 -7.66 31 -8 31 C-7.88487847 29.27014758 -7.75744323 27.54111249 -7.625 25.8125 C-7.55539063 24.84957031 -7.48578125 23.88664062 -7.4140625 22.89453125 C-6.99563864 19.96951166 -6.14122024 17.71039808 -5 15 C-4.6186926 12.67402489 -4.27539746 10.34087842 -4 8 C-3.34 8 -2.68 8 -2 8 C-2.04125 7.05125 -2.0825 6.1025 -2.125 5.125 C-2 2 -2 2 0 0 Z " fill="#B7AA26" transform="translate(214,180)"/>
<path d="M0 0 C-0.75 1.9375 -0.75 1.9375 -2 4 C-4 4.625 -4 4.625 -6 5 C-6.66 5.66 -7.32 6.32 -8 7 C-8.66 7.309375 -9.32 7.61875 -10 7.9375 C-12.32131409 8.96786859 -12.32131409 8.96786859 -14 12 C-14 10.68 -14 9.36 -14 8 C-14.66 7.67 -15.32 7.34 -16 7 C-15.360625 6.896875 -14.72125 6.79375 -14.0625 6.6875 C-13.381875 6.460625 -12.70125 6.23375 -12 6 C-11.67 5.01 -11.34 4.02 -11 3 C-7.02436956 0.97467883 -4.4949298 0 0 0 Z " fill="#D8C31B" transform="translate(208,160)"/>
<path d="M0 0 C2 1.375 2 1.375 4 3 C4 3.66 4 4.32 4 5 C4.66 5 5.32 5 6 5 C6 5.66 6 6.32 6 7 C6.66 7 7.32 7 8 7 C9.2890625 8.53125 9.2890625 8.53125 10.625 10.5 C11.07101563 11.1496875 11.51703125 11.799375 11.9765625 12.46875 C12.48316406 13.22671875 12.48316406 13.22671875 13 14 C12.01 14.495 12.01 14.495 11 15 C11 14.34 11 13.68 11 13 C9.68 12.67 8.36 12.34 7 12 C7 11.01 7 10.02 7 9 C4.69 9 2.38 9 0 9 C-1.15941038 5.52176885 -0.70820884 3.54104422 0 0 Z " fill="#D8C719" transform="translate(123,87)"/>
<path d="M0 0 C0.33 1.32 0.66 2.64 1 4 C0.01 4.33 -0.98 4.66 -2 5 C-5.93970674 12.29575323 -5.28290491 19.95292711 -5 28 C-5.66 27.67 -6.32 27.34 -7 27 C-9.07315338 20.36590919 -8.64976908 13.16651222 -6 6.796875 C-4.42430147 3.96554171 -2.44277674 2.11267177 0 0 Z " fill="#B1A721" transform="translate(139,61)"/>
<path d="M0 0 C4.70588235 0.70588235 4.70588235 0.70588235 6 2 C6.125 4.5 6.125 4.5 6 7 C5 8 5 8 2.5625 8.1875 C0 8 0 8 -2 6 C-1.44444444 1.44444444 -1.44444444 1.44444444 0 0 Z " fill="#8F8525" transform="translate(149,88)"/>
<path d="M0 0 C1.04313944 3.73723186 1.07058606 7.11776661 1 11 C1 11.99 1 12.98 1 14 C0.68911632 15.67099977 0.35919668 17.33871537 0 19 C-0.66 19 -1.32 19 -2 19 C-2.66 20.98 -3.32 22.96 -4 25 C-5.13902011 21.58293968 -4.8198446 20.33739308 -4.00390625 16.89453125 C-3.77509766 15.91162109 -3.54628906 14.92871094 -3.31054688 13.91601562 C-3.06369141 12.89185547 -2.81683594 11.86769531 -2.5625 10.8125 C-2.31951172 9.77673828 -2.07652344 8.74097656 -1.82617188 7.67382812 C-1.22457901 5.11410947 -0.61559499 2.55638082 0 0 Z " fill="#B5A816" transform="translate(189,184)"/>
<path d="M0 0 C-0.53625 0.2475 -1.0725 0.495 -1.625 0.75 C-8.25450689 4.23921416 -13.49881241 8.96335714 -19 14 C-19.66 12.68 -20.32 11.36 -21 10 C-18.81442306 8.21915953 -17.04812162 7.01718629 -14.375 6.0625 C-11.48825636 4.77106206 -11.32871788 3.74601695 -10 1 C-6.79497337 -0.37358284 -3.44040362 -0.07819099 0 0 Z " fill="#B0A31D" transform="translate(111,199)"/>
<path d="M0 0 C0.33 0.66 0.66 1.32 1 2 C2.01126953 1.75443359 2.01126953 1.75443359 3.04296875 1.50390625 C6.51367906 0.9124642 9.79322124 0.90460954 13.3125 0.9375 C14.56675781 0.94652344 15.82101563 0.95554687 17.11328125 0.96484375 C18.06589844 0.97644531 19.01851562 0.98804687 20 1 C20 1.66 20 2.32 20 3 C17.20865148 3.19425873 14.41716313 3.38069517 11.625 3.5625 C10.8309375 3.61857422 10.036875 3.67464844 9.21875 3.73242188 C3.2265625 4.11328125 3.2265625 4.11328125 1 3 C0.67 4.32 0.34 5.64 0 7 C-1.04449911 3.86650268 -0.93423645 3.01031744 0 0 Z " fill="#E8D426" transform="translate(145,68)"/>
<path d="M0 0 C0.33 0 0.66 0 1 0 C1.67561372 2.5395837 2.34065828 5.08118835 3 7.625 C3.19078125 8.33785156 3.3815625 9.05070312 3.578125 9.78515625 C4.65017287 13.95848544 5.21946814 17.65178751 5 22 C4.67 21.34 4.34 20.68 4 20 C3.34 20 2.68 20 2 20 C2 18.02 2 16.04 2 14 C1.34 14 0.68 14 0 14 C0 9.38 0 4.76 0 0 Z " fill="#BCA822" transform="translate(92,255)"/>
<path d="M0 0 C2.5489253 3.82338795 3.47430386 7.60346015 4.6875 12 C5.04424805 13.22976562 5.04424805 13.22976562 5.40820312 14.484375 C5.62798828 15.27328125 5.84777344 16.0621875 6.07421875 16.875 C6.27619873 17.59429687 6.47817871 18.31359375 6.6862793 19.0546875 C7 21 7 21 6 24 C2.33102632 20.79609874 2.02363252 17.19069036 1.3125 12.5625 C1.18294922 11.79873047 1.05339844 11.03496094 0.91992188 10.24804688 C0.3422942 6.73643733 0 3.583619 0 0 Z " fill="#BFB22C" transform="translate(147,215)"/>
<path d="M0 0 C1.32 0.33 2.64 0.66 4 1 C3 8.42857143 3 8.42857143 2 12 C0.68 11.34 -0.64 10.68 -2 10 C-2.25 3.375 -2.25 3.375 0 0 Z " fill="#D6C61C" transform="translate(116,279)"/>
<path d="M0 0 C1.80187563 2.70281344 2.49132793 4.29233453 3.2890625 7.34375 C3.50820312 8.17777344 3.72734375 9.01179687 3.953125 9.87109375 C4.17484375 10.73863281 4.3965625 11.60617188 4.625 12.5 C4.96917969 13.80130859 4.96917969 13.80130859 5.3203125 15.12890625 C7 21.59770275 7 21.59770275 7 25 C6.34 25 5.68 25 5 25 C5 23.02 5 21.04 5 19 C4.34 19 3.68 19 3 19 C0.86608597 12.74051886 0.41044485 6.57791873 0 0 Z " fill="#B7A725" transform="translate(155,243)"/>
<path d="M0 0 C0.66 0.33 1.32 0.66 2 1 C1.67 1.33 1.34 1.66 1 2 C4.63 2.66 8.26 3.32 12 4 C9.64046906 6.35953094 8.22104383 6.49141413 5 7 C5 6.34 5 5.68 5 5 C4.2575 5.350625 3.515 5.70125 2.75 6.0625 C-0.1322726 7.04509293 -1.21176345 7.0326802 -4 6 C-3.34 5.67 -2.68 5.34 -2 5 C-2.33 4.01 -2.66 3.02 -3 2 C-2.01 1.34 -1.02 0.68 0 0 Z " fill="#928521" transform="translate(147,177)"/>
<path d="M0 0 C4.07678614 4.07678614 4.12257278 10.09537331 4.1953125 15.59375 C4.18218686 17.56259575 4.15858509 19.53139696 4.125 21.5 C4.11597656 22.51320313 4.10695312 23.52640625 4.09765625 24.5703125 C4.07429007 27.04712801 4.04153168 29.52343379 4 32 C3.67 32 3.34 32 3 32 C2.95101562 30.90042969 2.90203125 29.80085938 2.8515625 28.66796875 C2.47847112 21.06052342 2.00863964 13.66790838 0.40234375 6.19921875 C0 4 0 4 0 0 Z " fill="#C6B627" transform="translate(223,61)"/>
<path d="M0 0 C3.16860855 2.65478014 4.50301588 5.83999806 6.1875 9.5625 C6.71730469 10.71878906 7.24710938 11.87507813 7.79296875 13.06640625 C9 16 9 16 9 18 C6 17 6 17 4.8125 15.125 C4 13 4 13 4 10 C3.34 10 2.68 10 2 10 C0.39644899 6.49223216 -0.22036864 3.85645121 0 0 Z " fill="#BFB01F" transform="translate(214,42)"/>
<path d="M0 0 C1.32 0.33 2.64 0.66 4 1 C-3.11389522 10.59453303 -3.11389522 10.59453303 -8 14 C-8 12.68 -8 11.36 -8 10 C-7.01 10 -6.02 10 -5 10 C-5 9.34 -5 8.68 -5 8 C-4.34 8 -3.68 8 -3 8 C-2.814375 6.8553125 -2.814375 6.8553125 -2.625 5.6875 C-2 3 -2 3 0 0 Z " fill="#B4A423" transform="translate(136,167)"/>
<path d="M0 0 C0.66 0 1.32 0 2 0 C2.74609375 1.671875 2.74609375 1.671875 3 4 C1.34765625 6.578125 1.34765625 6.578125 -0.9375 9.25 C-2.06478516 10.58804688 -2.06478516 10.58804688 -3.21484375 11.953125 C-3.80394531 12.62859375 -4.39304688 13.3040625 -5 14 C-7 10.25 -7 10.25 -7 8 C-6.34 8 -5.68 8 -5 8 C-5 7.34 -5 6.68 -5 6 C-3.68 6 -2.36 6 -1 6 C-0.67 4.02 -0.34 2.04 0 0 Z " fill="#BEAF18" transform="translate(210,139)"/>
<path d="M0 0 C0.99 0.33 1.98 0.66 3 1 C2.40165275 5.14298667 0.99335715 8.18194377 -1.0625 11.8125 C-1.61035156 12.78832031 -2.15820312 13.76414063 -2.72265625 14.76953125 C-3.35494141 15.87361328 -3.35494141 15.87361328 -4 17 C-4.33 17 -4.66 17 -5 17 C-5.3636198 12.75776898 -4.5393228 10.41831915 -2 7 C-1.34 7 -0.68 7 0 7 C0 4.69 0 2.38 0 0 Z " fill="#BDB123" transform="translate(218,124)"/>
<path d="M0 0 C0.66 0.33 1.32 0.66 2 1 C2 2.32 2 3.64 2 5 C2.66 5 3.32 5 4 5 C4 5.66 4 6.32 4 7 C5.65 7 7.3 7 9 7 C9.33 8.32 9.66 9.64 10 11 C4.68477584 8.93899471 0.55184719 6.4371091 -4 3 C-2.68 2.01 -1.36 1.02 0 0 Z " fill="#B7AA1B" transform="translate(87,162)"/>
<path d="M0 0 C0.33 0 0.66 0 1 0 C0.85930804 2.12534659 0.71229079 4.25027529 0.5625 6.375 C0.48128906 7.55835938 0.40007812 8.74171875 0.31640625 9.9609375 C0 13 0 13 -1 15 C-1.66 15 -2.32 15 -3 15 C-3 15.66 -3 16.32 -3 17 C-3.66 17 -4.32 17 -5 17 C-4.21781755 12.15046881 -2.59454269 7.62764021 -1 3 C-0.67 2.01 -0.34 1.02 0 0 Z " fill="#E6D31C" transform="translate(175,249)"/>
<path d="M0 0 C1.32 0.33 2.64 0.66 4 1 C3.29875 1.825 2.5975 2.65 1.875 3.5 C-0.10590431 7.19768804 -0.23706977 7.47627618 0.8125 11.1875 C1.204375 12.445625 1.59625 13.70375 2 15 C1.67 15.99 1.34 16.98 1 18 C-0.75734451 13.02638346 -2.32584613 8.2584002 -3 3 C-2.01 3 -1.02 3 0 3 C0 2.01 0 1.02 0 0 Z " fill="#B5AA28" transform="translate(85,216)"/>
<path d="M0 0 C1.32 0.33 2.64 0.66 4 1 C4 1.66 4 2.32 4 3 C3.34 3 2.68 3 2 3 C2 5.31 2 7.62 2 10 C1.34 10 0.68 10 0 10 C-0.33 11.32 -0.66 12.64 -1 14 C-2.01586535 10.95240395 -2.00433442 9.54906747 -1.625 6.4375 C-1.53476563 5.65246094 -1.44453125 4.86742187 -1.3515625 4.05859375 C-1 2 -1 2 0 0 Z " fill="#A29A1F" transform="translate(178,9)"/>
<path d="M0 0 C0 0.66 0 1.32 0 2 C-1.65 2 -3.3 2 -5 2 C-4.814375 2.61875 -4.62875 3.2375 -4.4375 3.875 C-4 6 -4 6 -5 8 C-6.32 8 -7.64 8 -9 8 C-9.33 7.34 -9.66 6.68 -10 6 C-10.99 6 -11.98 6 -13 6 C-10.83049884 3.57206296 -8.99994161 2.3943719 -5.9375 1.3125 C-5.24527344 1.06113281 -4.55304688 0.80976563 -3.83984375 0.55078125 C-2 0 -2 0 0 0 Z " fill="#B7AA16" transform="translate(91,178)"/>
<path d="M0 0 C0.33 0 0.66 0 1 0 C1.04898438 0.89460938 1.09796875 1.78921875 1.1484375 2.7109375 C1.59688346 9.96339121 2.32113591 16.92595133 4 24 C3.34 24 2.68 24 2 24 C0.22330777 20.93843346 -0.24050818 18.75963785 -0.1953125 15.234375 C-0.18886719 14.34492187 -0.18242188 13.45546875 -0.17578125 12.5390625 C-0.15902344 11.61867188 -0.14226562 10.69828125 -0.125 9.75 C-0.11597656 8.81414063 -0.10695313 7.87828125 -0.09765625 6.9140625 C-0.07413636 4.60911343 -0.04126853 2.3046884 0 0 Z " fill="#ABA120" transform="translate(90,24)"/>
<path d="M0 0 C0.33 0 0.66 0 1 0 C1.69721895 2.93550125 2.38309005 5.87287476 3.0625 8.8125 C3.26166016 9.64587891 3.46082031 10.47925781 3.66601562 11.33789062 C3.94155273 12.54155273 3.94155273 12.54155273 4.22265625 13.76953125 C4.39547119 14.50792236 4.56828613 15.24631348 4.74633789 16.00708008 C5 18 5 18 4 21 C0.7592188 16.59497033 0.47735211 12.95805746 0.3125 7.6875 C0.27833984 6.94693359 0.24417969 6.20636719 0.20898438 5.44335938 C0.12706446 3.62941836 0.06184178 1.81473647 0 0 Z " fill="#B9A628" transform="translate(87,234)"/>
<path d="M0 0 C0.66 0 1.32 0 2 0 C2.99 4.29 3.98 8.58 5 13 C4.34 13 3.68 13 3 13 C2.67 13.66 2.34 14.32 2 15 C0.73694665 9.92523206 -0.27036084 5.27203646 0 0 Z " fill="#C6B816" transform="translate(65,225)"/>
<path d="M0 0 C0.33 0.66 0.66 1.32 1 2 C0 4 0 4 -2.125 5.125 C-5.52391089 6.15945114 -8.46640886 6.1385722 -12 6 C-11.67 5.01 -11.34 4.02 -11 3 C-9.2578125 2.3046875 -9.2578125 2.3046875 -7.125 1.875 C-4.656604 1.35581708 -2.40502333 0.80167444 0 0 Z " fill="#C5B534" transform="translate(152,181)"/>
<path d="M0 0 C0.33 1.32 0.66 2.64 1 4 C0.01 4.33 -0.98 4.66 -2 5 C-2.66 8.3 -3.32 11.6 -4 15 C-4.66 15 -5.32 15 -6 15 C-6.33 14.01 -6.66 13.02 -7 12 C-7.33 11.67 -7.66 11.34 -8 11 C-7.59007812 10.45730469 -7.18015625 9.91460937 -6.7578125 9.35546875 C-6.21898437 8.64003906 -5.68015625 7.92460937 -5.125 7.1875 C-4.59132812 6.47980469 -4.05765625 5.77210938 -3.5078125 5.04296875 C-2.29185219 3.39543703 -1.13583859 1.70375789 0 0 Z " fill="#BEAD15" transform="translate(169,155)"/>
<path d="M0 0 C0.33 0 0.66 0 1 0 C1.36517527 6.57315478 0.13619737 11.79485526 -2 18 C-2.66 18 -3.32 18 -4 18 C-3.41632611 11.69632197 -1.95928381 6.01339937 0 0 Z " fill="#A49A20" transform="translate(108,244)"/>
<path d="M0 0 C0.83051911 2.32545352 1.09394201 3.65554596 0.4375 6.0625 C-1.56572025 8.76249251 -3.96117814 9.6787731 -7 11 C-5.5140084 6.40693504 -3.14985318 3.56430755 0 0 Z " fill="#B5A717" transform="translate(67,30)"/>
<path d="M0 0 C0.66 0 1.32 0 2 0 C3.74685308 3.82745451 4.34886333 7.12442723 4.625 11.3125 C4.69976562 12.38113281 4.77453125 13.44976562 4.8515625 14.55078125 C4.90054688 15.35902344 4.94953125 16.16726563 5 17 C2.46394931 14.46394931 2.20749627 12.53123444 1.375 9.0625 C0.98441406 7.47115234 0.98441406 7.47115234 0.5859375 5.84765625 C0 3 0 3 0 0 Z " fill="#A89C19" transform="translate(140,271)"/>
<path d="M0 0 C0 3.96 0 7.92 0 12 C-0.99 12.495 -0.99 12.495 -2 13 C-2.66 13.99 -3.32 14.98 -4 16 C-3.1119403 8.51492537 -3.1119403 8.51492537 -2.375 5.125 C-1.77439854 2.95466382 -1.77439854 2.95466382 -3 1 C-1 0 -1 0 0 0 Z " fill="#9A8E16" transform="translate(194,168)"/>
<path d="M0 0 C3.21043882 1.38188453 5.04936365 2.92421903 7.25 5.625 C7.77078125 6.25664062 8.2915625 6.88828125 8.828125 7.5390625 C9.40820312 8.26222656 9.40820312 8.26222656 10 9 C7 9 7 9 5.625 7.6875 C5.08875 7.130625 4.5525 6.57375 4 6 C2.35394174 4.96642853 0.69036558 3.95939668 -1 3 C-0.67 2.01 -0.34 1.02 0 0 Z " fill="#CFC220" transform="translate(195,21)"/>
<path d="M0 0 C3.41199418 3.56708482 4.68721784 8.14740819 5 13 C4.01 14.485 4.01 14.485 3 16 C2.49193553 14.27318563 1.99389533 12.54342021 1.5 10.8125 C1.08234375 9.36810547 1.08234375 9.36810547 0.65625 7.89453125 C0.03322392 5.14654124 -0.12302812 2.80401584 0 0 Z " fill="#AFA21C" transform="translate(136,255)"/>
<path d="M0 0 C1.29065057 3.8719517 0.22324098 6.44232601 -0.9375 10.1875 C-1.23043945 11.16879883 -1.23043945 11.16879883 -1.52929688 12.16992188 C-2.01182563 13.78227407 -2.50490205 15.39146289 -3 17 C-3.33 17 -3.66 17 -4 17 C-4.19139889 11.54513151 -3.87720194 7.21444984 -2 2 C-1.34 1.34 -0.68 0.68 0 0 Z " fill="#BAAE2D" transform="translate(205,212)"/>
<path d="M0 0 C3.3985407 1.1328469 4.73413495 2.26533528 7 5 C7 6.32 7 7.64 7 9 C7.66 9.33 8.32 9.66 9 10 C6 10 6 10 4.39453125 8.57421875 C3.61142578 7.64029297 3.61142578 7.64029297 2.8125 6.6875 C2.01779297 5.76517578 2.01779297 5.76517578 1.20703125 4.82421875 C0 3 0 3 0 0 Z " fill="#B1A220" transform="translate(61,141)"/>
<path d="M0 0 C0.99 0.33 1.98 0.66 3 1 C2.01 1.495 2.01 1.495 1 2 C0.5359375 3.175625 0.5359375 3.175625 0.0625 4.375 C-0.99023648 6.97587837 -1.822667 8.27627805 -4 10 C-4.66 10 -5.32 10 -6 10 C-5.58578031 5.16743695 -3.53586014 3.17320782 0 0 Z " fill="#D2BB19" transform="translate(118,184)"/>
<path d="M0 0 C0.625 2.3125 0.625 2.3125 1 5 C0.01 6.485 0.01 6.485 -1 8 C-1 6.02 -1 4.04 -1 2 C-4.63 2.33 -8.26 2.66 -12 3 C-8.40198016 -0.59801984 -4.84291279 -0.09137571 0 0 Z " fill="#B4A834" transform="translate(220,157)"/>
<path d="M0 0 C3.84160316 5.76240474 4.23538321 11.29157865 4 18 C2.44596314 15.06836714 1.30198368 12.16634776 0.3125 9 C0.04050781 8.154375 -0.23148438 7.30875 -0.51171875 6.4375 C-1.02468085 3.8767932 -0.84216387 2.44171002 0 0 Z " fill="#A79E1A" transform="translate(174,105)"/>
<path d="M0 0 C0.66 0.33 1.32 0.66 2 1 C1.71517632 2.41805831 1.42181856 3.83440379 1.125 5.25 C0.88136719 6.43335938 0.88136719 6.43335938 0.6328125 7.640625 C0 10 0 10 -2 14 C-2.33 10.7 -2.66 7.4 -3 4 C-2.01 3.67 -1.02 3.34 0 3 C0 2.01 0 1.02 0 0 Z " fill="#C3B228" transform="translate(188,268)"/>
<path d="M0 0 C-2.03529587 2.03529587 -3.23417382 2.6384272 -5.875 3.625 C-6.89207031 4.01558594 -6.89207031 4.01558594 -7.9296875 4.4140625 C-10 5 -10 5 -14 5 C-14 4.34 -14 3.68 -14 3 C-9.03006806 0.56574762 -5.65394631 -0.34615998 0 0 Z " fill="#A99E21" transform="translate(173,176)"/>
<path d="M0 0 C2.13845121 4.22321744 3.96921853 8.36148337 5 13 C4.01 13 3.02 13 2 13 C0.21590198 9.93753253 -0.22880021 7.77920727 -0.125 4.25 C-0.10695312 3.45078125 -0.08890625 2.6515625 -0.0703125 1.828125 C-0.04710937 1.22484375 -0.02390625 0.6215625 0 0 Z " fill="#9B8D13" transform="translate(162,268)"/>
<path d="M0 0 C0 2.31 0 4.62 0 7 C-0.99 7.495 -0.99 7.495 -2 8 C-2.33 6.68 -2.66 5.36 -3 4 C-3.66 4 -4.32 4 -5 4 C-5 4.66 -5 5.32 -5 6 C-5.66 6 -6.32 6 -7 6 C-5.96849913 3.42124782 -5.35028898 2.21229635 -2.9375 0.75 C-1 0 -1 0 0 0 Z " fill="#ECD512" transform="translate(128,174)"/>
<path d="M0 0 C3.39417765 3.12621626 5.6062718 5.56541027 7 10 C6.01 10.33 5.02 10.66 4 11 C3.34 10.67 2.68 10.34 2 10 C1.3671875 7.71484375 1.3671875 7.71484375 0.875 4.9375 C0.70742187 4.01839844 0.53984375 3.09929688 0.3671875 2.15234375 C0.24601563 1.44207031 0.12484375 0.73179688 0 0 Z " fill="#BCB01E" transform="translate(207,32)"/>
<path d="M0 0 C0.33 0 0.66 0 1 0 C1.1875 2.875 1.1875 2.875 1 6 C0.01 6.66 -0.98 7.32 -2 8 C-3.19232613 10.05003955 -3.19232613 10.05003955 -4 12 C-4.95582656 9.44345185 -5.17802782 8.39658231 -4.0390625 5.859375 C-3.57242188 5.16328125 -3.10578125 4.4671875 -2.625 3.75 C-1.93277344 2.69039062 -1.93277344 2.69039062 -1.2265625 1.609375 C-0.82179688 1.07828125 -0.41703125 0.5471875 0 0 Z " fill="#ADA11D" transform="translate(69,194)"/>
<path d="M0 0 C1.32 0 2.64 0 4 0 C4.33 1.98 4.66 3.96 5 6 C3.35 6 1.7 6 0 6 C0 4.02 0 2.04 0 0 Z " fill="#D3C322" transform="translate(149,90)"/>
<path d="M0 0 C2.60464489 2.60464489 3.94531838 4.1830566 4.1953125 7.91796875 C4.17210938 8.99691406 4.14890625 10.07585937 4.125 11.1875 C4.10695313 12.27417969 4.08890625 13.36085938 4.0703125 14.48046875 C4.03550781 15.72763672 4.03550781 15.72763672 4 17 C3.67 17 3.34 17 3 17 C2.49622232 14.73000175 1.99709981 12.45896997 1.5 10.1875 C1.08234375 8.29064453 1.08234375 8.29064453 0.65625 6.35546875 C0 3 0 3 0 0 Z " fill="#897E14" transform="translate(76,278)"/>
<path d="M0 0 C2.53078176 3.13334885 4.51376532 6.24530187 6 10 C5.07421875 12.1875 5.07421875 12.1875 4 14 C3.32471777 12.42032193 2.66010306 10.83608097 2 9.25 C1.62875 8.36828125 1.2575 7.4865625 0.875 6.578125 C0 4 0 4 0 0 Z " fill="#B5A61E" transform="translate(94,48)"/>
<path d="M0 0 C0.97533063 2.63339271 1.019574 3.92348347 0.3125 6.6875 C-1 9 -1 9 -3.125 9.8125 C-3.74375 9.874375 -4.3625 9.93625 -5 10 C-3.84414715 6.08788267 -2.64465038 3.1254959 0 0 Z " fill="#ADA01C" transform="translate(59,41)"/>
<path d="M0 0 C0.33 0 0.66 0 1 0 C1.08121924 1.60332791 1.13929134 3.20784026 1.1875 4.8125 C1.23970703 6.15248047 1.23970703 6.15248047 1.29296875 7.51953125 C0.95081002 10.41647515 0.24606427 11.22555028 -2 13 C-1.85851011 11.3954444 -1.71164314 9.79136233 -1.5625 8.1875 C-1.48128906 7.29417969 -1.40007812 6.40085938 -1.31640625 5.48046875 C-1 3 -1 3 0 0 Z " fill="#EAD51E" transform="translate(191,181)"/>
<path d="M0 0 C2.9555377 2.75170751 5.11563315 5.41970299 7 9 C7 9.66 7 10.32 7 11 C6.34 11 5.68 11 5 11 C5 10.01 5 9.02 5 8 C4.01 8 3.02 8 2 8 C0.23537317 4.91190305 0 3.76687864 0 0 Z " fill="#C0B225" transform="translate(136,102)"/>
<path d="M0 0 C0.66 0 1.32 0 2 0 C1.82374165 2.37948772 1.30280227 3.70225849 -0.40234375 5.37890625 C-1.90649092 6.62115486 -3.45129851 7.81376056 -5 9 C-5 4.68381834 -2.86729652 3.07210341 0 0 Z " fill="#AD9D1F" transform="translate(76,185)"/>
<path d="M0 0 C0.33 0.66 0.66 1.32 1 2 C-0.0625 4.5625 -0.0625 4.5625 -2 7 C-5.1875 7.8125 -5.1875 7.8125 -8 8 C-5.58443874 4.80800833 -3.31996462 2.25283313 0 0 Z " fill="#A99919" transform="translate(160,166)"/>
<path d="M0 0 C0.99 0 1.98 0 3 0 C2.55090939 1.48199902 2.09043436 2.96055236 1.625 4.4375 C1.36976563 5.26121094 1.11453125 6.08492187 0.8515625 6.93359375 C0 9 0 9 -2 10 C-2 8.02 -2 6.04 -2 4 C-1.34 4 -0.68 4 0 4 C0 2.68 0 1.36 0 0 Z " fill="#C0B527" transform="translate(142,156)"/>
<path d="M0 0 C0.33 0 0.66 0 1 0 C0.49202991 4.3177458 -0.19682779 8.03302114 -2 12 C-2.33 12 -2.66 12 -3 12 C-2.67 8.7 -2.34 5.4 -2 2 C-1.34 2 -0.68 2 0 2 C0 1.34 0 0.68 0 0 Z " fill="#B9AD24" transform="translate(224,113)"/>
<path d="M0 0 C1.65 1.32 3.3 2.64 5 4 C4.34 5.65 3.68 7.3 3 9 C2.34 9 1.68 9 1 9 C0.67 6.03 0.34 3.06 0 0 Z " fill="#B7A816" transform="translate(116,79)"/>
<path d="M0 0 C0.66 0 1.32 0 2 0 C1.67 1.65 1.34 3.3 1 5 C0.01 5.33 -0.98 5.66 -2 6 C-2 5.34 -2 4.68 -2 4 C-4.31 4.66 -6.62 5.32 -9 6 C-8.34 5.01 -7.68 4.02 -7 3 C-5.00577205 2.63371323 -3.00546689 2.29868656 -1 2 C-0.67 1.34 -0.34 0.68 0 0 Z " fill="#CCBC11" transform="translate(153,51)"/>
<path d="M0 0 C1.25127906 3.54667178 0.72285053 5.72253438 -0.4375 9.25 C-0.72496094 10.14203125 -1.01242188 11.0340625 -1.30859375 11.953125 C-1.53675781 12.62859375 -1.76492187 13.3040625 -2 14 C-3.11742945 10.64771164 -2.84727505 9.26870332 -2.125 5.875 C-1.94195312 4.98554688 -1.75890625 4.09609375 -1.5703125 3.1796875 C-1 1 -1 1 0 0 Z " fill="#A49A27" transform="translate(200,229)"/>
<path d="M0 0 C0 0.66 0 1.32 0 2 C-0.66 2 -1.32 2 -2 2 C-2 2.66 -2 3.32 -2 4 C-3.98 4 -5.96 4 -8 4 C-7.67 3.01 -7.34 2.02 -7 1 C-4 0 -4 0 0 0 Z " fill="#C3B63D" transform="translate(132,189)"/>
<path d="M0 0 C1.13643966 3.40931897 0.86747764 4.00335456 -0.4375 7.1875 C-0.72496094 7.90292969 -1.01242188 8.61835937 -1.30859375 9.35546875 C-1.53675781 9.89816406 -1.76492187 10.44085938 -2 11 C-2.99 10.67 -3.98 10.34 -5 10 C-5 9.01 -5 8.02 -5 7 C-4.34 7 -3.68 7 -3 7 C-2.01 4.69 -1.02 2.38 0 0 Z " fill="#918729" transform="translate(139,82)"/>
<path d="M0 0 C1 4 1 4 0.0625 6.25 C-0.4634375 7.11625 -0.4634375 7.11625 -1 8 C-1.66 8 -2.32 8 -3 8 C-3 8.66 -3 9.32 -3 10 C-3.99 9.67 -4.98 9.34 -6 9 C-4.02 6.03 -2.04 3.06 0 0 Z " fill="#9A9417" transform="translate(173,28)"/>
<path d="M0 0 C0.33 0 0.66 0 1 0 C0.51855059 4.81449408 0.1991413 7.60171741 -2 12 C-2 8.7 -2 5.4 -2 2 C-1.34 2 -0.68 2 0 2 C0 1.34 0 0.68 0 0 Z " fill="#C0B01F" transform="translate(124,261)"/>
<path d="M0 0 C0.33 0 0.66 0 1 0 C2.97094808 4.92737019 3.1799928 8.78020872 3 14 C0.37625198 8.75250397 -0.09534716 5.91152367 0 0 Z " fill="#E9D721" transform="translate(84,228)"/>
<path d="M0 0 C0.33 0 0.66 0 1 0 C1.02698189 1.62490954 1.04638757 3.24994633 1.0625 4.875 C1.07410156 5.77992188 1.08570313 6.68484375 1.09765625 7.6171875 C1 10 1 10 0 12 C-0.66 12 -1.32 12 -2 12 C-1.44687265 7.97007218 -0.8441938 3.97977076 0 0 Z " fill="#B7AB1D" transform="translate(183,209)"/>
<path d="M0 0 C1.36125 0.12375 1.36125 0.12375 2.75 0.25 C1.76 0.745 1.76 0.745 0.75 1.25 C1.08 2.24 1.41 3.23 1.75 4.25 C-1.22 4.25 -4.19 4.25 -7.25 4.25 C-4.83923194 1.28290085 -3.90322061 0.30024774 0 0 Z " fill="#9D8B15" transform="translate(114.25,193.75)"/>
<path d="M0 0 C0.33 0.66 0.66 1.32 1 2 C1.66 2 2.32 2 3 2 C3 2.66 3 3.32 3 4 C3.66 4 4.32 4 5 4 C5.33 4.99 5.66 5.98 6 7 C5.01 7.495 5.01 7.495 4 8 C4 7.34 4 6.68 4 6 C2.68 6 1.36 6 0 6 C0 4.02 0 2.04 0 0 Z " fill="#C1B31D" transform="translate(107,69)"/>
<path d="M0 0 C0.66 0.33 1.32 0.66 2 1 C1.67 2.65 1.34 4.3 1 6 C-1.97 5.505 -1.97 5.505 -5 5 C-3.35 3.35 -1.7 1.7 0 0 Z " fill="#B4A61B" transform="translate(85,14)"/>
<path d="M0 0 C0.99 0 1.98 0 3 0 C2.34 3.3 1.68 6.6 1 10 C0.67 10 0.34 10 0 10 C0 6.7 0 3.4 0 0 Z " fill="#B5AA21" transform="translate(180,294)"/>
<path d="M0 0 C0.33 0 0.66 0 1 0 C1.9765625 6.0546875 1.9765625 6.0546875 2 8 C1.34 8.66 0.68 9.32 0 10 C-0.66 9.34 -1.32 8.68 -2 8 C-2 4.79604584 -1.25664978 2.90600261 0 0 Z " fill="#B5A111" transform="translate(173,147)"/>
<path d="M0 0 C0.33 0.66 0.66 1.32 1 2 C3.32156597 2.40729228 5.6568787 2.74438677 8 3 C8 3.33 8 3.66 8 4 C5.69 3.67 3.38 3.34 1 3 C0.67 4.32 0.34 5.64 0 7 C-1.04449911 3.86650268 -0.93423645 3.01031744 0 0 Z " fill="#E5D318" transform="translate(145,68)"/>
<path d="M0 0 C0.33 0.66 0.66 1.32 1 2 C-0.4375 4.625 -0.4375 4.625 -2 7 C-3.32 6.67 -4.64 6.34 -6 6 C-4.02 4.02 -2.04 2.04 0 0 Z " fill="#948A18" transform="translate(166,38)"/>
<path d="M0 0 C0.33 0.66 0.66 1.32 1 2 C0.67 2.66 0.34 3.32 0 4 C-0.66 4 -1.32 4 -2 4 C-2 4.66 -2 5.32 -2 6 C-3.65 6.33 -5.3 6.66 -7 7 C-2.25 1.125 -2.25 1.125 0 0 Z " fill="#A59B19" transform="translate(79,19)"/>
<path d="M0 0 C0.33 0 0.66 0 1 0 C1.33 2.64 1.66 5.28 2 8 C1.01 8.33 0.02 8.66 -1 9 C-1.33 9.99 -1.66 10.98 -2 12 C-1.33333333 8 -0.66666667 4 0 0 Z " fill="#EDD916" transform="translate(179,231)"/>
<path d="M0 0 C2.97 0 5.94 0 9 0 C5.81237635 2.12508244 3.73487777 2.5020163 0 3 C0 2.01 0 1.02 0 0 Z " fill="#9C8F19" transform="translate(173,173)"/>
<path d="M0 0 C1.32 0.33 2.64 0.66 4 1 C2.02 3.97 2.02 3.97 0 7 C-0.66 5.68 -1.32 4.36 -2 3 C-1.34 2.01 -0.68 1.02 0 0 Z " fill="#B9AC1D" transform="translate(136,167)"/>
<path d="M0 0 C2.31 0.33 4.62 0.66 7 1 C7.33 2.65 7.66 4.3 8 6 C4.63408134 4.55746343 2.48952921 2.66735273 0 0 Z " fill="#A39417" transform="translate(75,158)"/>
<path d="M0 0 C2.54764436 1.27382218 3.5399926 2.56665433 5 5 C4.6875 7.25 4.6875 7.25 4 9 C0 3.375 0 3.375 0 0 Z " fill="#9B8F19" transform="translate(56,133)"/>
<path d="M0 0 C0.99 0.33 1.98 0.66 3 1 C3 1.99 3 2.98 3 4 C3.66 4 4.32 4 5 4 C4.67 5.65 4.34 7.3 4 9 C1.49701566 6.06171403 0.53069061 3.82097239 0 0 Z " fill="#B1A41E" transform="translate(167,93)"/>
<path d="M0 0 C0.33 0 0.66 0 1 0 C1 2.64 1 5.28 1 8 C-0.98 8.99 -0.98 8.99 -3 10 C-2.01 6.7 -1.02 3.4 0 0 Z " fill="#B0A21C" transform="translate(53,51)"/>
<path d="M0 0 C0.66 0 1.32 0 2 0 C3.2890625 1.53125 3.2890625 1.53125 4.625 3.5 C5.07101563 4.1496875 5.51703125 4.799375 5.9765625 5.46875 C6.31429687 5.9740625 6.65203125 6.479375 7 7 C6.01 7.495 6.01 7.495 5 8 C5 7.34 5 6.68 5 6 C3.68 5.67 2.36 5.34 1 5 C0.67 3.35 0.34 1.7 0 0 Z " fill="#B4AA1F" transform="translate(129,94)"/>
<path d="M0 0 C0.33 0 0.66 0 1 0 C1.36923077 7.50769231 1.36923077 7.50769231 -0.5 10 C-0.995 10.33 -1.49 10.66 -2 11 C-1 3.57142857 -1 3.57142857 0 0 Z " fill="#9B9118" transform="translate(111,233)"/>
<path d="M0 0 C0.99 0 1.98 0 3 0 C2.8125 1.875 2.8125 1.875 2 4 C-0.5625 5.25 -0.5625 5.25 -3 6 C-3 5.34 -3 4.68 -3 4 C-2.01 4 -1.02 4 0 4 C0 2.68 0 1.36 0 0 Z " fill="#F0D31A" transform="translate(109,191)"/>
</svg>
